<svg width="3305" height="1595" viewBox="0 0 3305 1595" fill="none" xmlns="http://www.w3.org/2000/svg">
<path d="M584.225 1085.18C554.24 1115.16 518.488 1138.52 476.97 1155.24C435.74 1171.96 390.617 1180.32 341.603 1180.32C292.876 1180.32 247.754 1171.96 206.236 1155.24C164.718 1138.52 128.677 1115.02 98.1153 1084.74C67.5532 1054.18 43.7667 1018.43 26.7557 977.489C10.0331 936.259 1.67175 891.425 1.67175 842.987C1.67175 794.261 10.0331 749.427 26.7557 708.485C43.7667 667.544 67.5532 631.936 98.1153 601.662C128.677 571.1 164.718 547.458 206.236 530.735C247.754 514.012 292.876 505.651 341.603 505.651C390.329 505.651 435.307 514.012 476.537 530.735C517.767 547.458 553.375 570.668 583.36 600.365L503.784 681.239C483.889 657.597 459.959 639.144 431.992 625.881C404.024 612.618 373.318 605.987 339.873 605.987C308.157 605.987 278.749 611.897 251.646 623.719C224.833 635.54 201.479 652.118 181.584 673.454C161.69 694.79 146.121 719.874 134.876 748.706C123.92 777.538 118.442 808.965 118.442 842.987C118.442 877.009 123.92 908.436 134.876 937.268C146.121 965.812 161.69 990.896 181.584 1012.52C201.479 1033.86 224.833 1050.43 251.646 1062.26C278.749 1074.08 308.157 1079.99 339.873 1079.99C373.318 1079.99 404.024 1073.36 431.992 1060.09C459.959 1046.83 483.889 1028.38 503.784 1004.74L584.225 1085.18Z" fill="white"/>
<path d="M771.404 1167.35H657.661V518.626H771.404V1167.35Z" fill="white"/>
<path d="M1238.4 1167.35H1145.85L1139.79 1114.15C1123.93 1133.76 1104.18 1149.04 1080.54 1160C1056.9 1170.66 1030.66 1176 1001.83 1176C971.268 1176 944.022 1170.09 920.091 1158.27C896.16 1146.16 877.275 1129.72 863.436 1108.96C849.885 1088.2 843.109 1064.56 843.109 1038.04C843.109 1010.07 850.461 985.562 865.166 964.515C880.158 943.179 900.485 926.456 926.146 914.347C952.095 902.237 981.648 896.182 1014.8 896.182C1034.99 896.182 1055.17 898.489 1075.35 903.102C1095.82 907.715 1114.71 914.203 1132.01 922.564V908.724C1132.01 889.695 1126.82 873.261 1116.44 859.422C1106.06 845.582 1092.07 834.914 1074.49 827.418C1056.9 819.633 1037.15 815.741 1015.24 815.741C995.343 815.741 975.449 819.201 955.555 826.12C935.66 832.752 917.064 842.699 899.764 855.962L869.491 772.493C897.169 757.212 925.425 745.679 954.257 737.894C983.378 730.109 1011.78 726.217 1039.46 726.217C1080.11 726.217 1115.28 734.29 1144.98 750.436C1174.68 766.294 1197.6 789.071 1213.75 818.768C1230.18 848.177 1238.4 882.92 1238.4 922.996V1167.35ZM1023.89 1090.37C1042.63 1090.37 1059.93 1086.47 1075.78 1078.69C1091.93 1070.91 1105.05 1060.09 1115.14 1046.25C1125.52 1032.13 1131 1015.98 1131.57 997.816V993.058C1118.02 983.256 1102.74 975.759 1085.73 970.569C1068.72 965.091 1051.57 962.352 1034.27 962.352C1007.74 962.352 985.972 968.407 968.961 980.516C951.951 992.338 943.445 1007.91 943.445 1027.22C943.445 1039.05 946.905 1049.86 953.825 1059.66C960.744 1069.18 970.259 1076.67 982.368 1082.15C994.766 1087.63 1008.61 1090.37 1023.89 1090.37Z" fill="white"/>
<path d="M1429.04 1167.35H1322.65V734.867H1415.2L1419.09 813.578C1434.08 785.9 1454.26 764.42 1479.64 749.139C1505.3 733.858 1534.71 726.217 1567.86 726.217C1576.51 726.217 1585.31 726.794 1594.24 727.947C1603.47 729.1 1612.55 730.83 1621.49 733.137L1608.52 829.148C1590.64 823.958 1573.34 821.363 1556.62 821.363C1531.25 821.363 1508.9 827.274 1489.58 839.095C1470.55 850.916 1455.71 867.35 1445.04 888.398C1434.37 909.157 1429.04 933.376 1429.04 961.055V1167.35Z" fill="white"/>
<path d="M1769.31 1167.35H1662.92V734.867H1769.31V1167.35Z" fill="white"/>
<path d="M2239.33 1100.75C2218.29 1124.68 2192.77 1143.27 2162.79 1156.54C2132.8 1169.51 2100.08 1176 2064.61 1176C2020.79 1176 1981.43 1166.2 1946.54 1146.59C1911.95 1126.98 1884.56 1100.31 1864.37 1066.58C1844.48 1032.56 1834.53 994.068 1834.53 951.108C1834.53 908.148 1844.48 869.801 1864.37 836.068C1884.56 802.046 1911.95 775.232 1946.54 755.626C1981.43 736.02 2020.79 726.217 2064.61 726.217C2099.79 726.217 2132.22 732.704 2161.92 745.679C2191.91 758.653 2217.42 776.962 2238.47 800.604L2176.19 866.774C2163.22 852.646 2147.5 841.69 2129.05 833.905C2110.89 826.12 2091.57 822.228 2071.1 822.228C2046.3 822.228 2024.25 827.706 2004.93 838.662C1985.9 849.619 1970.91 864.755 1959.95 884.073C1949.28 903.391 1943.95 925.591 1943.95 950.675C1943.95 975.759 1949.28 998.104 1959.95 1017.71C1970.91 1037.03 1985.9 1052.31 2004.93 1063.55C2024.25 1074.51 2046.3 1079.99 2071.1 1079.99C2091.57 1079.99 2111.03 1076.1 2129.48 1068.31C2147.94 1060.24 2163.51 1049.28 2176.19 1035.44L2239.33 1100.75Z" fill="white"/>
<path d="M2355.15 620.259C2340.16 620.259 2327.47 615.069 2317.1 604.689C2307 594.022 2301.96 581.191 2301.96 566.199C2301.96 551.494 2307 538.952 2317.1 528.573C2327.47 517.905 2340.16 512.571 2355.15 512.571C2370.43 512.571 2383.26 517.905 2393.64 528.573C2404.02 538.952 2409.21 551.494 2409.21 566.199C2409.21 581.191 2404.02 594.022 2393.64 604.689C2383.26 615.069 2370.43 620.259 2355.15 620.259ZM2408.35 1167.35H2301.96V734.867H2408.35V1167.35Z" fill="white"/>
<path d="M2787.98 1156.1C2756.27 1169.37 2725.56 1176 2695.86 1176C2665.59 1176 2638.92 1169.51 2615.85 1156.54C2593.08 1143.56 2575.2 1125.54 2562.23 1102.48C2549.54 1079.12 2543.2 1052.02 2543.2 1021.17V830.013H2467.51V734.867H2548.82V626.746H2649.59V734.867H2772.84V830.013H2649.59V1001.71C2649.59 1026.22 2656.22 1045.53 2669.48 1059.66C2683.03 1073.79 2699.9 1080.85 2720.08 1080.85C2737.96 1080.85 2755.69 1075.37 2773.28 1064.42L2787.98 1156.1Z" fill="white"/>
<path d="M3033.11 1383.59H2919.37L3009.33 1165.62L2794.81 734.867H2914.61L3059.93 1044.09L3187.94 734.867H3301.68L3033.11 1383.59Z" fill="white"/>
<path d="M584.225 1085.18C554.24 1115.16 518.488 1138.52 476.97 1155.24C435.74 1171.96 390.617 1180.32 341.603 1180.32C292.876 1180.32 247.754 1171.96 206.236 1155.24C164.718 1138.52 128.677 1115.02 98.1153 1084.74C67.5532 1054.18 43.7667 1018.43 26.7557 977.489C10.0331 936.259 1.67175 891.425 1.67175 842.987C1.67175 794.261 10.0331 749.427 26.7557 708.485C43.7667 667.544 67.5532 631.936 98.1153 601.662C128.677 571.1 164.718 547.458 206.236 530.735C247.754 514.012 292.876 505.651 341.603 505.651C390.329 505.651 435.307 514.012 476.537 530.735C517.767 547.458 553.375 570.668 583.36 600.365L503.784 681.239C483.889 657.597 459.959 639.144 431.992 625.881C404.024 612.618 373.318 605.987 339.873 605.987C308.157 605.987 278.749 611.897 251.646 623.719C224.833 635.54 201.479 652.118 181.584 673.454C161.69 694.79 146.121 719.874 134.876 748.706C123.92 777.538 118.442 808.965 118.442 842.987C118.442 877.009 123.92 908.436 134.876 937.268C146.121 965.812 161.69 990.896 181.584 1012.52C201.479 1033.86 224.833 1050.43 251.646 1062.26C278.749 1074.08 308.157 1079.99 339.873 1079.99C373.318 1079.99 404.024 1073.36 431.992 1060.09C459.959 1046.83 483.889 1028.38 503.784 1004.74L584.225 1085.18Z" stroke="white" stroke-width="3.34355"/>
<path d="M771.404 1167.35H657.661V518.626H771.404V1167.35Z" stroke="white" stroke-width="3.34355"/>
<path d="M1238.4 1167.35H1145.85L1139.79 1114.15C1123.93 1133.76 1104.18 1149.04 1080.54 1160C1056.9 1170.66 1030.66 1176 1001.83 1176C971.268 1176 944.022 1170.09 920.091 1158.27C896.16 1146.16 877.275 1129.72 863.436 1108.96C849.885 1088.2 843.109 1064.56 843.109 1038.04C843.109 1010.07 850.461 985.562 865.166 964.515C880.158 943.179 900.485 926.456 926.146 914.347C952.095 902.237 981.648 896.182 1014.8 896.182C1034.99 896.182 1055.17 898.489 1075.35 903.102C1095.82 907.715 1114.71 914.203 1132.01 922.564V908.724C1132.01 889.695 1126.82 873.261 1116.44 859.422C1106.06 845.582 1092.07 834.914 1074.49 827.418C1056.9 819.633 1037.15 815.741 1015.24 815.741C995.343 815.741 975.449 819.201 955.555 826.12C935.66 832.752 917.064 842.699 899.764 855.962L869.491 772.493C897.169 757.212 925.425 745.679 954.257 737.894C983.378 730.109 1011.78 726.217 1039.46 726.217C1080.11 726.217 1115.28 734.29 1144.98 750.436C1174.68 766.294 1197.6 789.071 1213.75 818.768C1230.18 848.177 1238.4 882.92 1238.4 922.996V1167.35ZM1023.89 1090.37C1042.63 1090.37 1059.93 1086.47 1075.78 1078.69C1091.93 1070.91 1105.05 1060.09 1115.14 1046.25C1125.52 1032.13 1131 1015.98 1131.57 997.816V993.058C1118.02 983.256 1102.74 975.759 1085.73 970.569C1068.72 965.091 1051.57 962.352 1034.27 962.352C1007.74 962.352 985.972 968.407 968.961 980.516C951.951 992.338 943.445 1007.91 943.445 1027.22C943.445 1039.05 946.905 1049.86 953.825 1059.66C960.744 1069.18 970.259 1076.67 982.368 1082.15C994.766 1087.63 1008.61 1090.37 1023.89 1090.37Z" stroke="white" stroke-width="3.34355"/>
<path d="M1429.04 1167.35H1322.65V734.867H1415.2L1419.09 813.578C1434.08 785.9 1454.26 764.42 1479.64 749.139C1505.3 733.858 1534.71 726.217 1567.86 726.217C1576.51 726.217 1585.31 726.794 1594.24 727.947C1603.47 729.1 1612.55 730.83 1621.49 733.137L1608.52 829.148C1590.64 823.958 1573.34 821.363 1556.62 821.363C1531.25 821.363 1508.9 827.274 1489.58 839.095C1470.55 850.916 1455.71 867.35 1445.04 888.398C1434.37 909.157 1429.04 933.376 1429.04 961.055V1167.35Z" stroke="white" stroke-width="3.34355"/>
<path d="M1769.31 1167.35H1662.92V734.867H1769.31V1167.35Z" stroke="white" stroke-width="3.34355"/>
<path d="M2239.33 1100.75C2218.29 1124.68 2192.77 1143.27 2162.79 1156.54C2132.8 1169.51 2100.08 1176 2064.61 1176C2020.79 1176 1981.43 1166.2 1946.54 1146.59C1911.95 1126.98 1884.56 1100.31 1864.37 1066.58C1844.48 1032.56 1834.53 994.068 1834.53 951.108C1834.53 908.148 1844.48 869.801 1864.37 836.068C1884.56 802.046 1911.95 775.232 1946.54 755.626C1981.43 736.02 2020.79 726.217 2064.61 726.217C2099.79 726.217 2132.22 732.704 2161.92 745.679C2191.91 758.653 2217.42 776.962 2238.47 800.604L2176.19 866.774C2163.22 852.646 2147.5 841.69 2129.05 833.905C2110.89 826.12 2091.57 822.228 2071.1 822.228C2046.3 822.228 2024.25 827.706 2004.93 838.662C1985.9 849.619 1970.91 864.755 1959.95 884.073C1949.28 903.391 1943.95 925.591 1943.95 950.675C1943.95 975.759 1949.28 998.104 1959.95 1017.71C1970.91 1037.03 1985.9 1052.31 2004.93 1063.55C2024.25 1074.51 2046.3 1079.99 2071.1 1079.99C2091.57 1079.99 2111.03 1076.1 2129.48 1068.31C2147.94 1060.24 2163.51 1049.28 2176.19 1035.44L2239.33 1100.75Z" stroke="white" stroke-width="3.34355"/>
<path d="M2355.15 620.259C2340.16 620.259 2327.47 615.069 2317.1 604.689C2307 594.022 2301.96 581.191 2301.96 566.199C2301.96 551.494 2307 538.952 2317.1 528.573C2327.47 517.905 2340.16 512.571 2355.15 512.571C2370.43 512.571 2383.26 517.905 2393.64 528.573C2404.02 538.952 2409.21 551.494 2409.21 566.199C2409.21 581.191 2404.02 594.022 2393.64 604.689C2383.26 615.069 2370.43 620.259 2355.15 620.259ZM2408.35 1167.35H2301.96V734.867H2408.35V1167.35Z" stroke="white" stroke-width="3.34355"/>
<path d="M2787.98 1156.1C2756.27 1169.37 2725.56 1176 2695.86 1176C2665.59 1176 2638.92 1169.51 2615.85 1156.54C2593.08 1143.56 2575.2 1125.54 2562.23 1102.48C2549.54 1079.12 2543.2 1052.02 2543.2 1021.17V830.013H2467.51V734.867H2548.82V626.746H2649.59V734.867H2772.84V830.013H2649.59V1001.71C2649.59 1026.22 2656.22 1045.53 2669.48 1059.66C2683.03 1073.79 2699.9 1080.85 2720.08 1080.85C2737.96 1080.85 2755.69 1075.37 2773.28 1064.42L2787.98 1156.1Z" stroke="white" stroke-width="3.34355"/>
<path d="M3033.11 1383.59H2919.37L3009.33 1165.62L2794.81 734.867H2914.61L3059.93 1044.09L3187.94 734.867H3301.68L3033.11 1383.59Z" stroke="white" stroke-width="3.34355"/>
<path d="M761.795 171.145C726.889 351.451 986.884 590.773 986.884 590.773C986.884 590.773 636.315 347.846 655.761 132.997C686.78 -209.707 1595.18 226.633 1595.18 226.633C1595.18 226.633 819.739 -128.166 761.795 171.145Z" fill="white"/>
<path d="M2495.23 1491.64C2224.57 1491.64 1829.4 1271.68 1829.4 1271.68C1829.4 1271.68 2632.41 1782.37 2769.6 1516.51C2820.9 1417.08 2726.1 1271.68 2726.1 1271.68C2726.1 1271.68 2779.29 1491.64 2495.23 1491.64Z" fill="white"/>
<path d="M761.795 171.145C726.889 351.451 986.884 590.773 986.884 590.773C986.884 590.773 636.315 347.846 655.761 132.997C686.78 -209.707 1595.18 226.633 1595.18 226.633C1595.18 226.633 819.739 -128.166 761.795 171.145Z" stroke="white" stroke-width="3.34355"/>
<path d="M2495.23 1491.64C2224.57 1491.64 1829.4 1271.68 1829.4 1271.68C1829.4 1271.68 2632.41 1782.37 2769.6 1516.51C2820.9 1417.08 2726.1 1271.68 2726.1 1271.68C2726.1 1271.68 2779.29 1491.64 2495.23 1491.64Z" stroke="white" stroke-width="3.34355"/>
<path d="M1714.16 66.9659C1714.16 66.9659 1712.65 244.817 1784.17 316.343C1855.7 387.869 2033.55 386.354 2033.55 386.354C2033.55 386.354 1855.7 384.839 1784.17 456.365C1712.65 527.891 1714.16 705.743 1714.16 705.743C1714.16 705.743 1715.68 527.891 1644.15 456.365C1572.62 384.839 1394.77 386.354 1394.77 386.354C1394.77 386.354 1572.62 387.869 1644.15 316.343C1715.68 244.817 1714.16 66.9659 1714.16 66.9659Z" fill="white" stroke="white" stroke-width="3.34355"/>
</svg>
