<svg width="370" height="541" viewBox="0 0 370 541" fill="none" xmlns="http://www.w3.org/2000/svg">
<g filter="url(#filter0_d_2600_3)">
<path d="M189.668 146.739C196.308 140.251 202.948 133.764 209.357 127.503C212.434 130.469 215.768 133.682 219.067 136.862C210.932 144.863 202.617 153.04 194.201 161.318C203.181 169.971 211.645 178.127 220.053 186.23C215.946 190.407 212.701 193.707 209.114 197.354C201.736 189.853 194.35 182.343 186.732 174.429C185.727 164.717 187.165 155.666 189.668 146.739Z" fill="#FAFAFA"/>
<path d="M197.321 249.461C204.296 257.047 211.27 264.634 218.255 272.231C216.163 274.395 213.012 277.653 209.781 280.994C201.439 272.718 193.261 264.606 184.12 255.537C181.464 258.607 178.924 261.541 176.147 264.248C175.983 261.039 175.851 258.035 176.181 255.082C176.638 251.005 177.138 246.881 178.254 242.958C178.676 241.478 180.988 239.385 182.229 239.518C185.255 239.844 186.852 238.626 188.564 236.539C190.637 234.011 192.755 234.426 193.346 237.623C193.981 241.055 193.969 244.624 194.043 248.137C194.118 251.654 193.951 255.176 194 258.897C195.194 258.985 197.221 258.876 197.221 258.757C197.23 256.816 196.984 254.873 196.752 252.664C196.914 251.419 197.117 250.44 197.321 249.461Z" fill="#FBFBFB"/>
<path d="M174.723 162.733C174.205 161.741 173.889 160.55 173.138 159.788C166.474 153.03 159.73 146.351 153.02 139.637C152.147 138.764 151.337 137.829 150.102 136.496C153.628 133.408 157.05 130.412 160.72 127.2C168.097 134.577 175.916 142.395 183.832 150.66C184.028 158.541 184.125 165.975 184.223 173.409C181.163 176.407 178.103 179.404 174.81 182.199C174.54 179.266 174.504 176.534 174.53 173.486C174.636 169.691 174.679 166.212 174.723 162.733Z" fill="#F9F9F9"/>
<path d="M190.523 405.504C190.46 405.7 190.333 405.835 189.79 405.801C188.47 405.425 187.502 405.157 186.534 404.888C186.2 406.228 185.866 407.568 185.343 409.662C187.488 408.511 188.656 407.883 189.825 407.256C192.171 408.288 194.517 409.32 197.063 410.44C193.245 413.782 180.41 414.181 175.837 411.131C177.555 410.208 179.053 409.403 180.551 408.598C180.54 408.325 180.528 408.051 180.516 407.777C175.17 407.777 169.823 407.777 164.476 407.777C164.401 407.344 164.326 406.911 164.251 406.478C166.833 405.518 169.416 404.559 171.998 403.6C171.987 403.306 171.975 403.013 171.963 402.719C170.725 402.421 169.487 402.123 167.978 401.489C168.122 399.695 168.69 398.258 168.897 396.77C169.028 395.823 168.623 394.802 168.635 393.636C169.84 391.112 171.65 388.804 171.765 386.415C172.291 375.45 172.343 364.463 172.572 353.166C172.6 347.119 172.623 341.389 172.884 335.663C174.041 335.894 174.959 336.121 175.926 336.668C176.02 341.053 176.064 345.117 176.044 349.514C176.195 363.675 174.04 377.629 177.97 391.327C177.521 391.704 177.276 392.003 177.031 392.303C177.193 392.41 177.355 392.516 177.517 392.623C177.758 392.188 178 391.753 178.478 391.35C182.337 393.604 185.629 396.718 190.367 395.986C188.37 396.555 186.448 396.877 184.324 397.233C182.988 400.181 183.434 400.973 186.838 401.094C191.264 401.252 191.264 401.252 190.523 405.504Z" fill="#C92123"/>
<path d="M173.68 244.179C166.255 236.259 158.831 228.338 151.197 220.194C153.763 217.899 157.215 214.81 160.934 211.482C164.599 215.162 168.78 219.359 173.037 224.07C173.302 231.115 173.491 237.647 173.68 244.179Z" fill="#F6F7F6"/>
<path d="M173.186 329.086C165.57 321.717 157.954 314.348 150.124 306.77C153.784 303.438 157.13 300.392 161.08 296.796C164.602 300.471 168.603 304.645 172.689 309.305C172.911 316.223 173.048 322.655 173.186 329.086Z" fill="#F6F7F6"/>
<path d="M173.715 244.436C173.491 237.647 173.303 231.115 173.169 224.25C176.748 227.942 180.272 231.969 183.797 235.996C184.403 235.867 185.009 235.739 185.615 235.611C188.442 232.481 191.268 229.352 194.413 226.34C196.046 227.04 197.361 227.623 198.679 228.48C197.826 233.937 196.969 239.12 196.113 244.303C196.449 245.876 196.784 247.448 197.22 249.241C197.117 250.44 196.913 251.419 196.527 252.777C195.526 255.003 194.708 256.849 193.889 258.695C193.95 255.176 194.118 251.654 194.043 248.137C193.969 244.624 193.981 241.055 193.346 237.623C192.755 234.426 190.637 234.011 188.564 236.539C186.852 238.626 185.255 239.844 182.229 239.518C180.988 239.385 178.676 241.478 178.254 242.958C177.138 246.881 176.638 251.005 176.181 255.082C175.851 258.035 175.982 261.039 175.937 264.338C175.966 264.654 176.016 264.722 175.748 264.691C174.627 264.252 173.775 263.843 172.805 263.199C171.885 259.158 171.082 255.353 170.28 251.548C171.437 249.263 172.594 246.978 173.715 244.436Z" fill="#C92323"/>
<path d="M199.495 306.736C202.907 303.522 206.319 300.308 209.497 297.315C212.648 300.228 216.051 303.374 219.245 306.326C211.755 313.995 204.406 321.52 196.836 328.833C196.667 324.786 196.719 320.95 196.915 316.903C197.871 313.373 198.683 310.055 199.495 306.736Z" fill="#F7F8F7"/>
<path d="M196.316 244.192C196.969 239.12 197.826 233.937 198.831 228.277C199.647 225.113 200.315 222.427 200.982 219.74C203.787 216.779 206.591 213.818 209.251 211.01C212.798 214.421 216.151 217.647 219.612 220.976C211.851 228.741 204.185 236.411 196.316 244.192Z" fill="#F8F8F8"/>
<path d="M211.45 347.964C211.648 347.991 211.799 348.09 211.842 348.628C211.711 349.143 211.641 349.289 211.382 349.472C211.203 349.959 211.213 350.408 211.246 351.15C211.138 352.61 211.007 353.777 210.648 355.011C210.453 356.196 210.487 357.313 210.559 358.747C210.58 361.001 210.562 362.938 210.545 364.875C210.514 373.115 210.256 381.364 210.602 389.588C210.696 391.827 212.094 394.36 215.49 394.278C218.749 394.199 221.939 394.123 224.6 397.082C225.68 398.283 228.478 397.939 230.76 398.576C229.66 399.611 228.295 400.368 226.929 401.125C226.411 401.136 225.892 401.146 225.062 400.994C224.567 400.888 224.383 400.945 224.2 401.001C221.431 400.847 218.662 400.692 215.511 400.486C215.008 400.45 214.89 400.474 214.773 400.508C213.998 400.718 213.224 400.927 212.114 400.941C210.634 399.025 209.49 397.305 208.371 395.335C209.557 392.402 207.515 392.9 206.154 392.489C208.107 382.336 208.008 372.42 206.934 362.175C206.918 360.036 206.884 358.202 207.013 356.277C206.98 355.77 206.786 355.354 206.497 354.678C206.181 352.989 205.957 351.56 205.984 350.126C207.973 349.401 209.712 348.683 211.45 347.964Z" fill="#CC2224"/>
<path d="M174.467 173.803C174.504 176.534 174.541 179.266 174.618 182.306C174.432 186.121 174.205 189.629 173.741 193.312C173.032 193.144 172.561 192.801 172.09 192.458C171.48 191.108 170.871 189.759 170.022 188.036C167.294 185.004 165.138 185.155 163.626 188.272C162.901 189.766 162.613 191.472 161.89 193.083C161.177 193.084 160.701 193.084 160.157 192.807C159.17 188.56 158.252 184.59 157.333 180.619C160.659 177.041 163.984 173.463 167.616 169.988C170.103 171.328 172.285 172.566 174.467 173.803Z" fill="#C61E1F"/>
<path d="M172.644 335.66C172.622 341.39 172.6 347.119 172.351 353.256C168.665 357.053 165.205 360.442 161.768 363.485C161.872 361.327 161.955 359.515 162.11 357.412C162.908 352.071 163.634 347.02 164.36 341.97C166.902 339.405 169.443 336.84 172.24 334.447C172.545 334.966 172.594 335.313 172.644 335.66Z" fill="#F8F8F8"/>
<path d="M172.884 335.664C172.595 335.314 172.545 334.967 172.456 334.359C172.688 332.603 172.959 331.108 173.208 329.35C173.049 322.655 172.911 316.223 172.832 309.487C176.772 312.927 180.654 316.672 184.706 320.58C185.887 319.571 186.901 318.706 188.154 317.985C188.639 318.741 188.884 319.351 189.085 320.201C187.769 322.545 187.731 325.768 183.99 325.55C179.536 325.29 178.416 326.205 177.358 330.46C176.869 332.424 176.371 334.386 175.877 336.348C174.959 336.122 174.041 335.895 172.884 335.664Z" fill="#C62321"/>
<path d="M170.08 251.643C171.082 255.353 171.885 259.159 172.792 263.472C172.878 265.42 172.86 266.86 172.842 268.3C169.228 271.81 165.614 275.32 161.806 278.695C161.549 278.081 161.485 277.601 161.492 276.829C162.236 270.457 162.908 264.379 163.581 258.3C165.681 256.113 167.781 253.925 170.08 251.643Z" fill="#F7F6F6"/>
<path d="M206.1 392.773C207.515 392.9 209.557 392.402 208.165 395.436C206.151 397.307 204.203 398.677 202.651 400.403C201.706 401.454 201.373 403.054 200.765 404.408C200.245 404.419 199.725 404.43 198.881 404.147C197.082 403.012 195.624 402.287 194.57 404.417C193.39 404.733 192.21 405.049 190.776 405.435C191.263 401.252 191.264 401.252 186.838 401.094C183.434 400.973 182.988 400.181 184.324 397.233C186.448 396.877 188.37 396.555 190.649 395.905C193.507 395.358 196.043 395.328 198.498 394.868C201.072 394.385 203.569 393.489 206.1 392.773Z" fill="#CE2022"/>
<path d="M184.242 173.725C184.125 165.975 184.028 158.541 184.022 150.841C185.813 149.347 187.514 148.119 189.441 146.815C187.164 155.666 185.727 164.717 186.513 174.253C186.908 177.183 187.519 179.878 187.593 182.587C187.642 184.374 187.006 186.21 186.448 187.951C186.364 188.214 184.426 188.266 184.374 188.096C183.8 186.249 183.048 184.33 183.096 182.449C183.169 179.638 183.843 176.843 184.242 173.725Z" fill="#C8272A"/>
<path d="M189.13 319.96C188.884 319.35 188.639 318.74 188.361 317.883C189.352 316.589 190.376 315.54 191.793 314.537C193.714 315.426 195.242 316.27 196.77 317.114C196.719 320.95 196.667 324.786 196.641 328.929C197.5 331.183 198.182 333.215 199.218 335.047C199.862 336.184 201.042 337.018 201.826 338.2C199.437 339.354 197.205 340.295 194.852 340.994C194.174 334.597 193.687 328.436 193.033 322.293C192.66 318.792 191.917 318.438 189.13 319.96Z" fill="#CE2F2B"/>
<path d="M168.457 393.814C168.622 394.802 169.028 395.823 168.897 396.77C168.69 398.258 168.121 399.695 167.704 401.431C162.149 402.72 156.594 403.733 150.76 404.465C150.484 403.415 150.488 402.648 150.492 401.881C151.941 401.43 153.39 400.978 155.349 400.464C159.922 399.11 160.663 396.254 158.019 392.067C158.019 392.067 158.04 391.744 158.349 391.562C159.635 391.166 160.612 390.953 161.804 390.861C162.905 394.794 165.622 394.437 168.457 393.814Z" fill="#CF2223"/>
<path d="M161.589 390.74C160.613 390.953 159.636 391.167 158.411 391.412C158.311 382.529 158.46 373.614 158.616 364.089C158.479 361.094 158.335 358.708 158.419 356.352C159.777 356.822 160.907 357.263 162.038 357.703C161.955 359.515 161.873 361.327 161.775 363.72C161.703 373.113 161.646 381.927 161.589 390.74Z" fill="#D62929"/>
<path d="M153.925 399.627C147.387 400.115 140.854 400.762 134.306 401.007C131.945 401.095 129.548 400.215 127.2 399.246C134.323 395.865 141.881 397.857 149.539 397.279C151.25 398.206 152.588 398.917 153.925 399.627Z" fill="#C61E1F"/>
<path d="M210.752 364.769C210.563 362.939 210.58 361.002 210.676 358.525C210.796 356.971 210.836 355.957 210.877 354.944C211.008 353.777 211.138 352.611 211.367 351.001C211.5 350.184 211.536 349.81 211.571 349.435C211.641 349.289 211.712 349.143 211.859 348.767C214.496 350.924 217.057 353.311 219.511 355.599C216.521 358.768 213.74 361.715 210.752 364.769Z" fill="#EFEEEE"/>
<path d="M157.118 180.705C158.251 184.589 159.169 188.56 160.112 193.104C160.116 194.677 160.096 195.676 160.076 196.675C156.853 193.778 153.63 190.88 149.428 187.102C152.07 184.871 154.487 182.831 157.118 180.705Z" fill="#EFEEEE"/>
<path d="M159.89 280.405C156.691 277.538 153.492 274.671 149.918 271.468C152.436 269.065 154.646 266.957 157.194 265.012C158.283 269.159 159.033 273.141 159.732 277.392C159.75 278.576 159.82 279.49 159.89 280.405Z" fill="#EFEEEE"/>
<path d="M201.033 404.473C201.372 403.054 201.706 401.454 202.651 400.403C204.203 398.677 206.151 397.307 208.139 395.685C209.49 397.305 210.634 399.025 211.817 401C211.855 401.255 211.86 401.527 211.56 401.66C210.591 402.568 209.197 403.725 209.372 404.057C210.617 406.422 211.896 404.429 213.351 404.013C213.644 405.165 213.751 406.153 213.859 407.141C209.673 406.273 205.487 405.406 201.033 404.473Z" fill="#C92123"/>
<path d="M194.973 341.237C197.205 340.296 199.437 339.354 201.93 338.406C203.27 339.403 204.349 340.407 205.412 341.854C204.931 343.452 204.465 344.606 203.797 345.599C200.804 343.104 199.486 343.396 198.802 346.825C198.319 349.245 198.372 351.772 198.153 354.434C198.066 354.728 198.011 354.838 197.713 354.948C196.819 354.944 196.169 354.941 195.479 354.689C195.515 353.275 195.591 352.109 195.583 350.663C195.323 347.334 195.148 344.286 194.973 341.237Z" fill="#C82223"/>
<path d="M172.948 268.607C172.86 266.859 172.878 265.419 172.91 263.706C173.775 263.843 174.627 264.251 175.717 264.72C176.129 270.801 176.371 276.822 176.432 282.844C176.451 284.675 176.024 286.524 175.622 288.325C175.585 288.49 173.641 288.516 173.599 288.35C173.149 286.562 172.65 284.722 172.651 282.896C172.653 278.235 172.904 273.575 172.948 268.607Z" fill="#C62326"/>
<path d="M154.139 399.675C152.588 398.916 151.251 398.206 149.862 397.248C148.808 396.537 147.845 395.871 146.791 395.658C145.422 395.38 143.98 395.462 142.569 395.389C142.531 394.997 142.492 394.605 142.454 394.213C144.204 394.004 145.955 393.797 147.705 393.585C150.999 393.187 154.293 392.786 157.804 392.227C160.664 396.255 159.924 399.111 155.598 400.409C155.008 400.185 154.68 399.955 154.139 399.675Z" fill="#C01F23"/>
<path d="M158.191 356.323C158.335 358.708 158.478 361.094 158.587 363.778C155.82 361.574 153.088 359.07 150.325 356.538C152.579 354.165 154.643 351.992 156.966 350.046C157.546 352.289 157.868 354.306 158.191 356.323Z" fill="#EFEEEE"/>
<path d="M158.419 356.352C157.869 354.306 157.546 352.289 157.19 349.951C159.418 347.137 161.68 344.643 164.151 342.06C163.635 347.02 162.908 352.071 162.11 357.412C160.907 357.262 159.777 356.822 158.419 356.352Z" fill="#C92524"/>
<path d="M159.783 277.125C159.033 273.142 158.282 269.16 157.41 264.945C159.238 262.646 161.189 260.58 163.36 258.407C162.908 264.379 162.236 270.457 161.287 276.827C160.602 277.12 160.193 277.122 159.783 277.125Z" fill="#C82F2F"/>
<path d="M174.53 173.486C172.285 172.565 170.103 171.328 167.817 169.882C169.906 167.43 172.099 165.187 174.507 162.839C174.679 166.212 174.636 169.691 174.53 173.486Z" fill="#C92524"/>
<path d="M214.172 407.204C213.751 406.153 213.644 405.165 213.37 403.749C213.217 403.145 213.231 402.969 213.246 402.793C217.28 403.486 221.314 404.179 225.349 404.873C225.327 405.229 225.305 405.584 225.283 405.94C221.896 407.721 218.161 407.308 214.172 407.204Z" fill="#CF2223"/>
<path d="M227.183 401.244C228.295 400.369 229.66 399.612 231.049 398.628C234.703 398.609 238.334 398.817 241.964 399.025C241.956 399.495 241.948 399.964 241.94 400.434C237.199 401.69 232.37 402.055 227.183 401.244Z" fill="#C92123"/>
<path d="M162.127 193.082C162.613 191.472 162.901 189.766 163.626 188.272C165.138 185.155 167.294 185.004 169.849 187.888C167.498 190.361 165.082 192.608 162.462 194.711C162.216 194.072 162.171 193.577 162.127 193.082Z" fill="#EFEEEE"/>
<path d="M196.915 316.903C195.242 316.27 193.714 315.427 191.995 314.446C194.222 311.844 196.64 309.379 199.276 306.825C198.683 310.055 197.871 313.373 196.915 316.903Z" fill="#C01F23"/>
<path d="M161.89 193.083C162.171 193.577 162.216 194.071 162.267 194.816C162.348 197.671 162.476 200.277 162.475 202.884C162.475 204.136 162.259 205.393 162.036 206.63C162.024 206.697 160.598 206.676 160.572 206.546C160.319 205.292 160.152 204.009 160.104 202.728C160.035 200.917 160.087 199.102 160.082 196.982C160.097 195.676 160.117 194.677 160.181 193.381C160.701 193.083 161.177 193.084 161.89 193.083Z" fill="#CC2224"/>
<path d="M203.999 345.76C204.465 344.606 204.93 343.452 205.505 342.056C207.475 343.725 209.338 345.636 211.325 347.756C209.711 348.683 207.973 349.402 205.884 349.906C205.022 348.381 204.51 347.07 203.999 345.76Z" fill="#CE2F2B"/>
<path d="M150.184 401.836C150.488 402.649 150.484 403.416 150.476 404.474C146.94 404.953 143.409 405.14 139.878 405.328C139.822 404.84 139.767 404.353 139.712 403.866C142.7 401.656 146.308 401.796 150.184 401.836Z" fill="#C62123"/>
<path d="M159.732 277.392C160.193 277.121 160.602 277.119 161.216 277.119C161.485 277.601 161.549 278.08 161.616 278.802C161.831 281.641 162.134 284.235 162.207 286.835C162.236 287.883 161.853 288.984 161.435 289.966C161.352 290.161 159.761 290.065 159.702 289.86C159.404 288.836 159.244 287.725 159.3 286.658C159.402 284.74 159.692 282.832 159.897 280.663C159.82 279.491 159.75 278.576 159.732 277.392Z" fill="#CE2022"/>
<path d="M200.744 219.833C200.315 222.426 199.647 225.113 198.828 228.002C197.361 227.623 196.046 227.04 194.621 226.235C196.509 223.983 198.507 221.955 200.744 219.833Z" fill="#CE2F2B"/>
<path d="M172.102 192.763C172.561 192.801 173.032 193.144 173.684 193.626C174.162 196.777 174.458 199.789 174.475 203.109C173.383 204.582 172.571 205.747 171.759 206.912C171.832 203.973 171.903 201.033 171.978 198.093C172.02 196.418 172.068 194.743 172.102 192.763Z" fill="#D62929"/>
<path d="M189.817 407.043C188.656 407.883 187.488 408.511 185.343 409.662C185.866 407.568 186.2 406.228 186.534 404.888C187.502 405.157 188.47 405.425 189.651 405.836C189.845 406.263 189.827 406.546 189.817 407.043Z" fill="#C62123"/>
<path d="M171.867 207.102C172.571 205.747 173.383 204.581 174.469 203.403C175.576 207.11 174.999 207.924 171.867 207.102Z" fill="#C01F23"/>
<path d="M213.109 402.679C213.231 402.968 213.217 403.145 213.184 403.585C211.895 404.429 210.617 406.422 209.372 404.057C209.197 403.725 210.591 402.568 211.518 401.789C212.175 402.046 212.574 402.306 213.109 402.679Z" fill="#C32022"/>
<path d="M194.864 404.455C195.624 402.287 197.082 403.012 198.628 404.082C197.519 404.372 196.338 404.433 194.864 404.455Z" fill="#C92123"/>
<path d="M224.365 401.046C224.383 400.945 224.567 400.889 224.808 400.936C224.867 401.04 224.529 401.09 224.365 401.046Z" fill="#C92123"/>
<path d="M214.858 400.577C214.89 400.475 215.009 400.45 215.222 400.435C215.23 400.574 215.107 400.644 214.858 400.577Z" fill="#C92123"/>
<path d="M194 258.897C194.708 256.849 195.526 255.002 196.569 253.043C196.983 254.873 197.23 256.816 197.221 258.757C197.221 258.876 195.194 258.985 194 258.897Z" fill="#C82F2F"/>
<path d="M195.583 350.663C192.13 347.762 188.592 344.581 184.846 341.212C182.091 343.766 179.282 346.371 176.291 349.078C176.064 345.118 176.02 341.053 175.926 336.668C176.371 334.385 176.869 332.424 177.358 330.46C178.416 326.205 179.536 325.29 183.99 325.55C187.731 325.768 187.769 322.545 189.085 320.201C191.918 318.439 192.66 318.792 193.033 322.293C193.687 328.436 194.174 334.597 194.852 340.994C195.148 344.285 195.323 347.334 195.583 350.663Z" fill="#FAF8F8"/>
<path d="M178.196 391.329C177.999 391.754 177.758 392.189 177.516 392.624C177.354 392.517 177.193 392.411 177.031 392.304C177.276 392.004 177.521 391.705 177.969 391.328C178.172 391.25 178.151 391.339 178.196 391.329Z" fill="#C62123"/>
<path d="M206.934 362.175C204.134 359.805 201.352 357.13 198.378 354.353C198.372 351.772 198.319 349.245 198.802 346.825C199.486 343.396 200.804 343.104 203.797 345.599C204.511 347.07 205.022 348.38 205.634 349.911C205.957 351.561 206.181 352.99 206.452 354.864C206.617 355.663 206.734 356.016 206.851 356.369C206.884 358.202 206.918 360.036 206.934 362.175Z" fill="#F7F4F4"/>
<path d="M210.648 355.011C210.836 355.957 210.796 356.971 210.638 358.207C210.487 357.313 210.453 356.196 210.648 355.011Z" fill="#C8272A"/>
<path d="M207.013 356.277C206.734 356.016 206.617 355.662 206.546 355.124C206.786 355.354 206.98 355.77 207.013 356.277Z" fill="#C8272A"/>
<path d="M211.382 349.472C211.535 349.809 211.5 350.184 211.345 350.708C211.214 350.408 211.203 349.959 211.382 349.472Z" fill="#C8272A"/>
<path d="M197.713 354.948C198.317 357.771 198.694 360.59 199.031 363.414C199.166 364.542 199.567 365.801 199.224 366.784C198.683 368.337 197.618 369.707 196.775 371.155C195.853 369.667 194.303 368.239 194.152 366.676C193.904 364.126 194.555 361.486 194.856 358.887C194.986 357.757 195.186 356.636 195.437 355.224C196.169 354.941 196.819 354.944 197.713 354.948Z" fill="#C61E1F"/>
</g>
<defs>
<filter id="filter0_d_2600_3" x="-4.57764e-05" y="-4.57764e-05" width="369.164" height="540.4" filterUnits="userSpaceOnUse" color-interpolation-filters="sRGB">
<feFlood flood-opacity="0" result="BackgroundImageFix"/>
<feColorMatrix in="SourceAlpha" type="matrix" values="0 0 0 0 0 0 0 0 0 0 0 0 0 0 0 0 0 0 127 0" result="hardAlpha"/>
<feOffset/>
<feGaussianBlur stdDeviation="63.6"/>
<feComposite in2="hardAlpha" operator="out"/>
<feColorMatrix type="matrix" values="0 0 0 0 1 0 0 0 0 1 0 0 0 0 1 0 0 0 0.49 0"/>
<feBlend mode="normal" in2="BackgroundImageFix" result="effect1_dropShadow_2600_3"/>
<feBlend mode="normal" in="SourceGraphic" in2="effect1_dropShadow_2600_3" result="shape"/>
</filter>
</defs>
</svg>
