<svg width="633" height="400" viewBox="0 0 633 400" fill="none" xmlns="http://www.w3.org/2000/svg">
<path d="M0 0H633V400H0V0Z" fill="url(#paint0_linear_7_2)"/>
<path d="M632.5 0.5V399.5H0.5V0.5H632.5Z" stroke="white" stroke-opacity="0.39"/>
<path d="M335.615 172.806C335.615 191.675 368.374 192.875 368.374 207.329C368.374 212.55 363.521 214.959 359.474 214.959C340.063 214.959 329.144 188.059 325.906 157.955C324.693 146.713 320.244 141.09 308.921 136.277C281.82 125.035 241.781 118.612 217.11 115C219.941 125.837 256.747 132.263 272.114 133.869C270.901 135.875 268.879 139.488 267.666 141.495C252.299 137.481 226.014 133.869 207 131.46C213.066 143.502 241.377 145.509 264.027 149.522L261.6 155.948C243.803 153.131 225.606 151.125 208.618 151.125C215.088 160.761 240.973 162.768 259.578 163.166L257.961 169.592C246.37 169.19 234.77 169.19 223.179 169.592C227.223 176.415 238.142 177.619 248.255 178.422C259.174 179.626 276.563 181.232 282.629 191.27C298.403 214.955 310.134 233.017 334.398 233.017C341.681 233.017 347.746 231.813 350.982 230.609C348.96 238.637 330.354 234.623 320.244 250.28C314.178 259.512 314.178 269.952 302.047 272.761C294.36 274.768 289.507 277.979 289.507 284C302.043 283.599 311.348 281.993 324.288 277.979C370.8 263.934 389.403 237.837 389.403 216.564C389.403 204.92 382.932 193.28 364.735 185.253L365.139 184.446C371.609 185.654 391.424 196.893 397.898 199.702C405.986 203.315 412.861 205.322 420.14 205.322C400.325 192.076 382.528 183.246 365.948 178.024C360.283 176.017 357.048 174.813 357.048 172.806C357.048 170.799 360.283 170.799 360.283 169.194C360.283 167.99 358.261 167.588 358.261 165.18C358.261 163.574 359.474 161.969 361.496 161.969C363.518 161.969 364.735 163.173 365.139 165.18C365.543 166.384 365.948 167.99 367.97 168.792C384.55 176.82 407.604 192.875 422.165 204.519V207.329C423.783 207.329 424.996 205.723 424.996 204.519C424.996 203.716 424.592 202.512 423.783 202.111C413.673 192.879 384.145 166.785 361.9 157.554C357.048 155.547 351.79 154.74 348.151 154.74V156.346H342.489L343.703 158.353L338.445 159.159L340.467 161.969L336.423 163.574L338.445 166.785L335.615 168.792L337.232 171.602L335.615 172.806Z" fill="black"/>
<defs>
<linearGradient id="paint0_linear_7_2" x1="0" y1="200" x2="633" y2="200" gradientUnits="userSpaceOnUse">
<stop stop-color="#F7AD63"/>
<stop offset="0.5" stop-color="#E5CBEC"/>
<stop offset="1" stop-color="#65CAFF"/>
</linearGradient>
</defs>
</svg>
